<?xml version="1.0" standalone="no"?>
<!DOCTYPE svg PUBLIC "-//W3C//DTD SVG 20010904//EN"
 "http://www.w3.org/TR/2001/REC-SVG-20010904/DTD/svg10.dtd">
<svg version="1.0" xmlns="http://www.w3.org/2000/svg"
 width="128.000000pt" height="131.000000pt" viewBox="0 0 128.000000 131.000000"
 preserveAspectRatio="xMidYMid meet">

<g transform="translate(0.000000,131.000000) scale(0.100000,-0.100000)"
fill="#000000" stroke="none">
<path d="M0 655 l0 -655 640 0 640 0 0 655 0 655 -640 0 -640 0 0 -655z m771
569 c164 -49 291 -173 340 -334 25 -85 24 -207 -3 -224 -30 -18 -53 4 -55 55
-13 229 -136 387 -336 431 -60 13 -77 24 -77 47 0 43 43 51 131 25z m-448 -24
c24 -19 58 -74 121 -196 l27 -52 -32 -64 c-22 -45 -30 -73 -26 -90 20 -77 222
-308 285 -324 13 -4 44 3 74 15 28 11 56 21 63 21 16 0 205 -136 227 -164 23
-27 23 -85 1 -116 -10 -14 -38 -46 -64 -73 -42 -42 -51 -47 -92 -47 -97 0
-349 163 -514 332 -152 157 -290 417 -310 589 -7 61 7 84 89 144 70 51 110 57
151 25z m448 -186 c81 -40 142 -122 159 -214 13 -68 4 -109 -26 -116 -36 -9
-54 12 -54 65 0 54 -26 115 -64 153 -31 30 -85 58 -114 58 -26 0 -52 26 -52
50 0 44 67 46 151 4z"/>
</g>
</svg>
