<svg width="62" height="101" viewBox="0 0 62 101" fill="none" xmlns="http://www.w3.org/2000/svg">
<path d="M16.351 10.7333C16.2806 9.76664 16.1493 8.79967 16.1536 7.83331C16.1608 6.22973 16.3455 4.64497 17.185 3.22132C17.4677 2.74174 17.7855 2.26887 18.3094 2.02612C18.7695 1.81292 19.1634 1.48896 19.7403 1.47875C20.6349 1.46291 21.5239 1.18135 22.4259 1.31425C22.9528 1.39188 23.4733 1.50645 24.0063 1.44395C24.2403 1.41651 24.6335 1.59754 24.6757 1.32143C24.725 0.999268 24.3039 1.08228 24.0816 1.00929C23.1733 0.711097 22.2509 0.640127 21.2877 0.656326C20.6209 0.667544 19.9681 0.690203 19.3075 0.814356C19.6712 0.46423 20.1333 0.338208 20.5875 0.242598C22.3857 -0.13594 24.1853 -0.0603745 25.956 0.391746C27.5951 0.810297 28.9128 1.79263 30.1028 2.95759C30.6662 3.50921 31.1766 4.10868 31.6503 4.73912C31.7605 4.88574 31.9013 5.01767 31.8886 5.22471C31.8563 5.25518 31.8237 5.28544 31.791 5.31548C31.3135 4.75236 30.8301 4.19411 30.3596 3.62519C29.1958 2.21783 27.6798 1.32675 26.0189 0.645507C25.9547 0.619172 25.8867 0.59802 25.7956 0.700659C26.0569 0.880035 26.3097 1.06569 26.5742 1.23296C27.5845 1.87198 28.3358 2.79898 29.2096 3.58972C32.1025 6.20779 33.988 9.51778 35.6531 12.9766C37.0805 15.9415 38.2226 19.024 39.3657 22.1049C40.3721 24.8176 41.3532 27.5398 42.3523 30.2554C43.4566 33.2572 44.3422 36.3224 45.0942 39.4307C45.9048 42.7804 46.672 46.1382 47.2869 49.5298C47.3321 49.7792 47.3465 50.0237 47.6284 50.1647C49.0365 50.8693 50.4263 51.6242 52.0118 51.8576C52.4473 51.9217 52.9342 52.1112 53.2965 51.638C53.3596 51.5556 53.4729 51.5777 53.5417 51.6498C53.7217 51.8389 53.8751 51.735 54.0253 51.6156C55.3816 50.5375 56.4667 49.2744 56.7917 47.5041C56.9584 46.5966 56.8202 45.7022 56.6356 44.8144C56.2087 42.7618 55.545 40.7918 54.5414 38.9455C54.3094 38.5186 54.2105 38.0638 54.1702 37.5839C55.9247 39.8296 56.667 42.5037 57.4042 45.3285C57.5999 44.8829 57.6279 44.5446 57.6028 44.1844C57.4489 41.9786 56.8822 39.9072 55.6467 38.0458C55.4587 37.7627 55.3061 37.4562 55.1308 37.1495C55.4609 37.0634 55.7424 37.0918 55.9964 36.7969C56.2435 36.5099 56.6888 36.6465 57.0402 36.8059C57.1415 36.8519 57.3119 36.9456 57.3281 36.8096C57.4066 36.1524 57.7708 36.5763 57.9553 36.6639C58.5902 36.9653 58.9653 37.5373 59.2915 38.1288C59.91 39.2503 60.3466 40.4461 60.6628 41.6852C60.9268 42.7194 61.1077 43.7695 61.2079 44.8321C61.3512 46.3516 60.9627 47.6796 59.7798 48.7134C59.6402 48.8354 59.5026 48.9596 59.3648 49.0836C58.694 49.6866 58.097 50.3347 57.5761 51.092C56.1875 53.1107 54.1963 54.273 51.824 54.8193C50.0025 55.2386 48.1986 55.2489 46.4025 54.682C45.8923 54.521 45.8634 54.5387 45.7845 55.06C45.5524 56.5943 45.2918 58.1236 44.8532 59.6132C43.5242 64.126 41.0614 67.8867 37.3274 70.774C36.1102 71.7153 34.7724 72.475 33.2407 72.7737C31.7832 73.058 30.3355 72.9341 28.9421 72.4047C27.3245 71.79 25.7883 71.0043 24.2999 70.1231C23.8815 69.8753 23.7758 69.9024 23.6141 70.3962C22.7133 73.1465 20.9977 75.3868 19.1516 77.5421C17.3412 79.6557 15.0114 80.8577 12.2863 81.2905C10.7369 81.5366 9.1953 81.3595 7.66723 81.0364C6.74249 80.8409 5.8714 80.4973 5.00465 80.1355C4.91958 80.1 4.82805 80.0799 4.73925 80.0535C4.1289 79.8719 4.08898 79.891 3.88325 80.4741C3.7908 80.7362 3.70947 81.0024 3.61052 81.262C2.47702 84.2356 0.307695 86.2046 -2.55085 87.4262C-4.51976 88.2676 -6.58109 88.7939 -8.76306 88.6637C-9.71856 88.6066 -10.6393 88.4286 -11.5345 88.0915C-12.0948 87.8804 -12.1426 87.9062 -12.267 88.504C-12.8002 91.0664 -13.8398 93.4335 -15.0058 95.758C-15.2538 96.2525 -15.6868 96.5654 -15.9872 97.0046C-16.7318 98.0933 -17.5007 99.1687 -18.4886 100.061C-18.6749 100.229 -18.8645 100.394 -19.1112 100.612C-19.163 100.274 -18.9534 100.134 -18.827 99.9833C-18.0827 99.094 -17.4141 98.1528 -16.7963 97.1716C-15.0246 94.3575 -14.0713 91.2602 -13.5797 87.9978C-13.4996 87.4665 -13.6357 87.106 -14.109 86.7778C-16.3122 85.2496 -17.8854 83.1929 -19.0178 80.7774C-19.4495 79.8567 -19.8934 78.9426 -20.2378 77.9841C-20.2841 77.8552 -20.3108 77.684 -20.4063 77.6145C-20.7093 77.3943 -20.6622 77.0886 -20.648 76.7961C-20.6222 76.2625 -20.6159 75.729 -20.7699 75.2154C-20.8366 74.9928 -20.7064 74.9141 -20.6178 74.7584C-20.2847 74.1734 -19.7702 73.9333 -19.1443 73.8442C-17.9682 73.6768 -16.8336 73.857 -15.7393 74.2853C-15.1211 74.5273 -14.6483 74.9761 -14.2452 75.4983C-13.5564 76.3906 -13.0847 77.391 -12.7618 78.4659C-12.1983 80.3416 -11.8751 82.257 -11.8858 84.2168C-11.8885 84.718 -11.7163 85.0215 -11.3045 85.2893C-9.94075 86.1764 -8.47331 86.7635 -6.85095 86.9381C-6.36643 86.9903 -5.88343 86.9914 -5.39793 86.8975C-2.48014 86.3335 -0.470476 84.6769 0.657553 81.9281C1.04709 80.9788 1.27884 79.9933 1.48836 78.9944C1.58219 78.547 1.43925 78.3143 1.07251 78.0976C-0.284748 77.2958 -1.6095 76.44 -2.88307 75.5115C-5.03814 73.9403 -7.06351 72.2109 -9.03068 70.4107C-9.32919 70.1376 -9.53977 69.6832 -10.08 69.7403C-10.1608 69.7488 -10.2684 69.5554 -10.3552 69.4486C-11.0565 68.5854 -11.7577 67.7221 -12.4551 66.8558C-13.3301 65.769 -14.1031 64.6134 -14.7087 63.3555C-16.0399 60.5899 -17.1369 57.7365 -17.6419 54.6965C-18.0232 52.4016 -18.1796 50.0908 -17.5868 47.796C-17.383 47.007 -17.0901 46.2559 -16.6469 45.5643C-16.2008 44.8679 -15.59 44.3767 -14.7973 44.183C-13.128 43.7752 -11.4883 43.6847 -9.86103 44.4889C-8.30701 45.257 -7.01272 46.2996 -5.95822 47.6563C-4.31652 49.7685 -2.96135 52.0634 -1.73234 54.431C1.07311 59.8355 2.96244 65.5555 4.05992 71.5395C4.26855 72.6771 4.40447 73.8264 4.42091 74.9861C4.4219 75.0556 4.42383 75.1251 4.42516 75.1946C4.43908 75.9175 4.69461 76.4058 5.42716 76.7412C7.48407 77.683 9.58483 78.4311 11.8427 78.6994C12.8197 78.8154 13.7868 78.7498 14.7519 78.6078C15.5208 78.4946 16.1223 78.0646 16.6513 77.5265C18.0285 76.1253 19.1474 74.5386 19.9612 72.7511C20.567 71.4205 20.9998 70.0269 21.3183 68.5984C21.4108 68.1834 21.3639 67.8716 20.9928 67.5661C17.7742 64.9161 15.048 61.7966 12.4753 58.536C11.2145 56.938 9.97924 55.3199 8.72944 53.7132C8.64699 53.6072 8.5843 53.4689 8.37415 53.4382C8.19878 53.6951 8.29291 53.9292 8.46168 54.1566C8.82055 54.6401 9.17501 55.1272 9.54445 55.6025C9.74409 55.8594 9.94262 56.1119 10.061 56.5042C9.77176 56.4158 9.62336 56.2236 9.45234 56.0656C8.01814 54.7399 6.79217 53.2336 5.62195 51.6767C3.41949 48.7466 1.34575 45.7329 -0.392048 42.4987C-1.23768 40.9249 -1.98012 39.3042 -2.59188 37.625C-2.83794 36.9496 -3.12368 36.2921 -3.42284 35.6386C-4.91705 32.3745 -5.85106 28.9712 -5.72741 25.3559C-5.62998 22.5072 -4.8354 19.8818 -2.89641 17.6887C-2.06986 16.7538 -1.1356 16.0533 0.157845 15.9482C0.555414 15.9159 0.939304 15.8947 1.31694 16.0608C1.74494 16.249 2.20595 16.3058 2.66487 16.3746C4.86215 16.7043 6.73731 17.7257 8.42536 19.1177C9.90366 20.3367 11.1163 21.796 12.1567 23.4006C13.7986 25.9327 15.1951 28.6014 16.53 31.3029C19.1909 36.6879 21.5953 42.181 23.4677 47.8957C24.3133 50.4763 24.9845 53.1002 25.3127 55.8005C25.6786 58.8111 25.6101 61.8161 25.0498 64.7984C24.9566 65.2941 25.0701 65.5614 25.4687 65.8325C27.5895 67.2756 29.8113 68.4999 32.3295 69.1038C33.3496 69.3484 34.381 69.4454 35.4325 69.3458C36.0061 69.2916 36.5052 69.1066 36.9627 68.7584C39.1918 67.0618 40.5994 64.8273 41.2613 62.1262C41.8299 59.8056 42.1773 57.4464 42.3043 55.0586C42.3375 54.4346 42.3136 53.8077 42.3332 53.1827C42.343 52.8652 42.2082 52.6715 41.9396 52.5143C39.5 51.0859 37.4606 49.1583 35.434 47.2246C34.3131 46.1551 33.2728 45.0008 32.2005 43.8807C32.0121 43.684 31.8137 43.4976 31.8446 43.1686C31.8652 42.9505 31.6614 42.8089 31.5312 42.6475C29.4385 40.0538 27.3564 37.4516 25.4657 34.7041C24.9841 34.0042 24.4254 33.3506 24.1717 32.4898C24.5038 32.9249 24.8359 33.3599 25.168 33.7949C25.1679 33.2929 24.9358 32.8941 24.6805 32.5144C23.8287 31.2476 23.031 29.9484 22.3239 28.5958C21.0907 26.2372 19.9135 23.854 18.9744 21.3568C18.3143 19.6015 17.5571 17.8819 17.035 16.077C16.9427 15.758 16.7261 15.4582 16.9691 15.054C17.0838 14.8632 16.8822 14.4823 16.8242 14.1875C16.6459 13.2809 16.3993 12.3862 16.3472 11.4576L16.3349 11.4585C16.5201 11.2165 16.458 10.974 16.3361 10.7314L16.351 10.7333ZM17.4375 3.35109C17.6419 3.30862 17.6798 3.17028 17.7074 2.96074C17.4787 3.0623 17.446 3.20346 17.4524 3.36534C17.2198 3.48933 17.1593 3.6946 17.1815 3.93895C16.8056 4.33281 16.7654 4.82616 16.7711 5.33276C16.9409 4.8756 17.2058 4.44515 17.1682 3.92846C17.3749 3.79057 17.4477 3.59017 17.4375 3.35109ZM31.2169 11.742C31.0037 11.2661 30.6626 10.8692 30.4272 10.3996C29.7602 9.06955 29.1979 7.68623 28.2887 6.47823C26.9239 4.665 25.2703 3.23957 23.1798 2.33091C22.667 2.10801 22.1641 2.06681 21.6246 2.20454C20.7813 2.41982 20.1921 2.93154 19.7969 3.68884C19.3829 4.48207 19.2031 5.34023 19.0987 6.21943C18.8418 8.38231 19.2556 10.4743 19.844 12.5292C21.145 17.0726 23.1257 21.3348 25.4585 25.4251C28.3675 30.5257 31.6609 35.3675 35.5335 39.8003C37.4091 41.9472 39.3022 44.0742 41.4645 45.9426C41.6109 46.0691 41.7205 46.2897 41.9787 46.2047C42.0464 46.0909 42.0098 45.9753 42.0025 45.8618C41.8944 44.1715 41.6185 42.5019 41.3553 40.8322C40.5022 35.4208 38.7351 30.2824 36.6511 25.2415C36.262 24.3002 35.7779 23.3935 35.45 22.4324C34.9044 20.8333 34.2828 19.2637 33.7007 17.6791C33.0951 16.0308 32.2488 14.4803 31.6933 12.8104C31.6418 12.6555 31.591 12.5032 31.4534 12.4C31.4777 12.1436 31.4559 11.9037 31.2169 11.742ZM14.9155 34.5458C14.9908 34.2787 14.8684 34.0507 14.7775 33.8127C14.1748 32.2347 13.3741 30.7452 12.7151 29.1924C11.7818 26.9932 10.6929 24.8732 9.4311 22.8449C8.70719 21.6813 7.88736 20.5906 6.85051 19.6772C5.86277 18.8071 4.744 18.1702 3.49438 17.7661C2.84033 17.5546 2.51272 17.6977 2.18822 18.2992C1.61433 19.3631 1.14257 20.4662 0.874495 21.6512C0.317423 24.1138 0.384298 26.5673 0.941875 29.0204C1.58884 31.8669 2.73575 34.519 4.09396 37.0832C6.4803 41.5885 9.21009 45.8936 11.837 50.2583C12.087 50.6737 12.3814 51.0645 12.677 51.4501C13.93 53.0847 15.1988 54.7073 16.4478 56.3449C18.034 58.4248 19.6704 60.4619 21.4873 62.347C21.6507 62.5165 21.7853 62.8658 22.0653 62.7428C22.3299 62.6265 22.2002 62.2859 22.1964 62.0459C22.1501 59.1524 21.732 56.3082 21.0478 53.4997C20.4733 51.1414 19.8429 48.7991 19.1396 46.4752C18.3618 43.905 17.5232 41.358 16.5062 38.8714C16.0071 37.6511 15.5121 36.4291 15.0229 35.2048C14.94 34.9974 14.7893 34.7917 14.9155 34.5458ZM1.64465 74.0742C1.75895 73.8624 1.74012 73.6971 1.72057 73.539C1.51305 71.8617 1.24448 70.1943 0.83922 68.5523C0.276485 66.2723 -0.476339 64.0526 -1.2414 61.8332C-1.97245 59.7124 -2.83489 57.6492 -3.77148 55.6182C-4.43691 54.1753 -5.22385 52.7878 -5.97838 51.3873C-6.08191 51.1951 -6.18945 50.9096 -6.53623 50.9366C-6.5532 51.2401 -6.27737 51.4487 -6.34093 51.7583C-6.6108 51.6265 -6.68991 51.3703 -6.8184 51.1609C-7.58197 49.9165 -8.33989 48.6685 -9.28888 47.5516C-9.92171 46.8067 -10.6141 46.1247 -11.442 45.5953C-11.9238 45.2872 -12.0015 45.305 -12.3407 45.7758C-12.7437 46.3351 -12.9215 46.9816 -13.0332 47.649C-13.2886 49.1747 -13.238 50.6994 -12.9555 52.213C-12.2346 56.0757 -10.6506 59.5889 -8.47393 62.8282C-5.86662 66.7084 -2.87248 70.2671 0.666613 73.3445C0.960592 73.6001 1.24061 73.8763 1.64465 74.0742ZM-13.7221 83.0414C-13.5856 82.8725 -13.6502 82.6845 -13.6781 82.5115C-13.7701 81.9408 -13.8589 81.3685 -13.9841 80.8046C-14.3172 79.3053 -14.7766 77.8566 -15.7033 76.5956C-16.0411 76.136 -16.4742 75.798 -16.9536 75.5142C-17.3136 75.301 -17.4625 75.396 -17.4332 75.8246C-17.4128 76.123 -17.3612 76.425 -17.2786 76.7124C-16.6363 78.948 -15.5302 80.941 -14.0769 82.7465C-13.986 82.8595 -13.9182 83.0341 -13.7221 83.0414ZM-15.7456 54.9244C-15.5433 56.524 -14.92 58.0006 -14.3731 59.5116C-13.8257 61.0238 -13.0831 62.4356 -12.3068 63.8172C-11.1611 65.8564 -9.89084 67.3033 -9.22238 67.5956C-12.1289 63.6678 -14.3956 59.5383 -15.7456 54.9244ZM24.9314 2.12311C25.6196 2.54452 26.3078 2.96592 26.9961 3.38732C26.514 2.65497 25.7946 2.29963 24.9314 2.12311ZM28.9948 5.063C29.0331 5.26151 29.1019 5.37034 29.2806 5.4211C29.2585 5.24893 29.1556 5.16651 28.9948 5.063ZM-6.88704 50.0067C-6.88894 49.93 -6.92275 49.8658 -6.99941 49.8605C-7.08063 49.8548 -7.12748 49.9189 -7.10147 49.9927C-7.08034 50.0527 -7.03004 50.134 -6.97929 50.1452C-6.88754 50.1654 -6.89883 50.0675 -6.88704 50.0067ZM16.522 7.20294C16.58 7.2112 16.6084 7.18507 16.6034 7.12771C16.598 7.06642 16.582 7.00606 16.5706 6.94529C16.5467 6.96994 16.5042 6.99346 16.5026 7.01946C16.4989 7.08106 16.5146 7.14384 16.522 7.20294ZM32.1957 7.70539C32.0974 7.70417 32.0607 7.75987 32.0826 7.82492C32.1005 7.87816 32.1501 7.93368 32.2004 7.95992C32.2674 7.99486 32.3248 7.95496 32.3261 7.87759C32.3278 7.78301 32.2782 7.71927 32.1957 7.70539ZM32.7657 8.60764C32.7282 8.62275 32.6662 8.62933 32.6574 8.65444C32.6221 8.75604 32.6823 8.83372 32.7601 8.88518C32.834 8.93403 32.8935 8.88976 32.9076 8.81246C32.9273 8.7044 32.8556 8.64683 32.7657 8.60764ZM-7.59186 48.9627C-7.57398 48.9617 -7.5561 48.9607 -7.53822 48.9596C-7.55819 48.9288 -7.57574 48.8958 -7.59961 48.8684C-7.60665 48.8603 -7.63156 48.8677 -7.64828 48.868C-7.62951 48.8996 -7.61074 48.9312 -7.59186 48.9627ZM16.6423 6.36703C16.6922 6.3829 16.7283 6.36388 16.7274 6.31036C16.7263 6.2494 16.7109 6.18868 16.7017 6.12786C16.6741 6.14963 16.6348 6.16586 16.6213 6.19433C16.5937 6.25206 16.5894 6.31516 16.6423 6.36703ZM33.2302 9.49091C33.2616 9.41287 33.2145 9.36375 33.1577 9.33357C33.1316 9.31973 33.0629 9.33211 33.0529 9.35224C33.0198 9.41847 33.0493 9.48227 33.1153 9.50947C33.146 9.52215 33.1919 9.49819 33.2302 9.49091ZM33.8091 10.5461C33.7557 10.5484 33.7222 10.5807 33.739 10.6334C33.7509 10.6706 33.7865 10.7172 33.8204 10.7264C33.8719 10.7404 33.9114 10.6962 33.8944 10.6465C33.8811 10.6078 33.8387 10.5791 33.8091 10.5461ZM-15.545 45.9229C-15.5178 45.8728 -15.5294 45.8197 -15.5827 45.8166C-15.6824 45.8108 -15.7409 45.8842 -15.7693 45.9697C-15.7798 46.0012 -15.7497 46.0796 -15.7383 46.0795C-15.6364 46.0793 -15.5963 45.9926 -15.545 45.9229ZM-22.5636 75.8329C-22.9943 76.6403 -23.0843 77.4989 -22.9291 78.394C-22.7857 79.2212 -22.4891 79.9965 -22.1572 80.7615C-21.3976 82.5127 -20.2231 83.9566 -18.8305 85.2357C-18.4731 85.5639 -18.4612 85.5509 -17.972 85.4662C-18.1145 85.3297 -18.246 85.2008 -18.3808 85.0754C-20.3524 83.2413 -21.5301 80.94 -22.2717 78.3942C-22.6334 77.1523 -22.4817 76.0017 -21.4574 75.0783C-21.9237 75.0746 -22.2866 75.3136 -22.5636 75.8329ZM29.7916 41.2157C29.6917 40.872 29.4438 40.621 29.2359 40.348C27.9185 38.6187 26.5737 36.9128 25.3592 35.1041C23.2165 31.9132 21.0985 28.7106 19.3257 25.2933C19.2676 25.1814 19.2439 24.9948 18.9871 24.9558C19.0601 25.1098 19.0991 25.191 19.1372 25.2727C20.1178 27.3739 21.3773 29.3196 22.5203 31.3299C24.1272 34.156 25.9986 36.8039 28.0405 39.3305C28.5623 39.9761 29.0327 40.6704 29.674 41.2139C29.7132 41.2144 29.7524 41.215 29.7916 41.2157ZM32.5893 6.307C32.4408 5.77099 32.2343 5.45234 31.8886 5.22471C31.8563 5.25518 31.8237 5.28544 31.791 5.31548C31.9544 5.66729 32.1504 5.9919 32.5893 6.307ZM30.4675 42.027C30.2689 41.6037 30.0376 41.4035 29.7916 41.2157C29.7524 41.215 29.7132 41.2144 29.674 41.2139C29.8361 41.5176 30.0165 41.803 30.4675 42.027ZM32.851 6.95215C32.8865 7.00176 32.9312 7.07408 32.9783 7.07938C33.054 7.0879 33.0847 7.00534 33.0504 6.94709C33.0231 6.90071 32.9541 6.87881 32.9168 6.85456C32.8406 6.8721 32.8193 6.90779 32.851 6.95215ZM-9.57864 70.2011C-9.59753 70.1782 -9.65317 70.1857 -9.69219 70.1794C-9.67121 70.2369 -9.65901 70.3004 -9.62534 70.3491C-9.60975 70.3717 -9.55226 70.3652 -9.49252 70.3756C-9.52361 70.3089 -9.54102 70.2466 -9.57864 70.2011ZM-8.82767 71.2054C-8.81252 71.2466 -8.80732 71.2968 -8.7799 71.3267C-8.73819 71.3721 -8.68958 71.3561 -8.69769 71.3056C-8.70387 71.2672 -8.74703 71.2347 -8.77398 71.1998C-8.79203 71.2018 -8.80985 71.2036 -8.82767 71.2054ZM16.3348 11.4585C16.3352 11.2161 16.3356 10.9738 16.336 10.7314C16.3361 10.7314 16.351 10.7333 16.351 10.7334C16.2075 10.9741 16.2993 11.2159 16.3472 11.4576L16.3348 11.4585Z" fill="#1B1B1B"/>
<path d="M16.351 10.7333C16.2806 9.76664 16.1493 8.79967 16.1536 7.83331C16.1608 6.22973 16.3455 4.64497 17.185 3.22132C17.4677 2.74174 17.7855 2.26887 18.3094 2.02612C18.7695 1.81292 19.1634 1.48896 19.7403 1.47875C20.6349 1.46291 21.5239 1.18135 22.4259 1.31425C22.9528 1.39188 23.4733 1.50645 24.0063 1.44395C24.2403 1.41651 24.6335 1.59754 24.6757 1.32143C24.725 0.999268 24.3039 1.08228 24.0816 1.00929C23.1733 0.711097 22.2509 0.640127 21.2877 0.656326C20.6209 0.667544 19.9681 0.690203 19.3075 0.814356C19.6712 0.46423 20.1333 0.338208 20.5875 0.242598C22.3857 -0.13594 24.1853 -0.0603745 25.956 0.391746C27.5951 0.810297 28.9128 1.79263 30.1028 2.95759C30.6662 3.50921 31.1766 4.10868 31.6503 4.73912C31.7605 4.88574 31.9013 5.01767 31.8886 5.22471C31.8563 5.25518 31.8237 5.28544 31.791 5.31548C31.3135 4.75236 30.8301 4.19411 30.3596 3.62519C29.1958 2.21783 27.6798 1.32675 26.0189 0.645507C25.9547 0.619172 25.8867 0.59802 25.7956 0.700659C26.0569 0.880035 26.3097 1.06569 26.5742 1.23296C27.5845 1.87198 28.3358 2.79898 29.2096 3.58972C32.1025 6.20779 33.988 9.51778 35.6531 12.9766C37.0805 15.9415 38.2226 19.024 39.3657 22.1049C40.3721 24.8176 41.3532 27.5398 42.3523 30.2554C43.4566 33.2572 44.3422 36.3224 45.0942 39.4307C45.9048 42.7804 46.672 46.1382 47.2869 49.5298C47.3321 49.7792 47.3465 50.0237 47.6284 50.1647C49.0365 50.8693 50.4263 51.6242 52.0118 51.8576C52.4473 51.9217 52.9342 52.1112 53.2965 51.638C53.3596 51.5556 53.4729 51.5777 53.5417 51.6498C53.7217 51.8389 53.8751 51.735 54.0253 51.6156C55.3816 50.5375 56.4667 49.2744 56.7917 47.5041C56.9584 46.5966 56.8202 45.7022 56.6356 44.8144C56.2087 42.7618 55.545 40.7918 54.5414 38.9455C54.3094 38.5186 54.2105 38.0638 54.1702 37.5839C55.9247 39.8296 56.667 42.5037 57.4042 45.3285C57.5999 44.8829 57.6279 44.5446 57.6028 44.1844C57.4489 41.9786 56.8822 39.9072 55.6467 38.0458C55.4587 37.7627 55.3061 37.4562 55.1308 37.1495C55.4609 37.0634 55.7424 37.0918 55.9964 36.7969C56.2435 36.5099 56.6888 36.6465 57.0402 36.8059C57.1415 36.8519 57.3119 36.9456 57.3281 36.8096C57.4066 36.1524 57.7708 36.5763 57.9553 36.6639C58.5902 36.9653 58.9653 37.5373 59.2915 38.1288C59.91 39.2503 60.3466 40.4461 60.6628 41.6852C60.9268 42.7194 61.1077 43.7695 61.2079 44.8321C61.3512 46.3516 60.9627 47.6796 59.7798 48.7134C59.6402 48.8354 59.5026 48.9596 59.3648 49.0836C58.694 49.6866 58.097 50.3347 57.5761 51.092C56.1875 53.1107 54.1963 54.273 51.824 54.8193C50.0025 55.2386 48.1986 55.2489 46.4025 54.682C45.8923 54.521 45.8634 54.5387 45.7845 55.06C45.5524 56.5943 45.2918 58.1236 44.8532 59.6132C43.5242 64.126 41.0614 67.8867 37.3274 70.774C36.1102 71.7153 34.7724 72.475 33.2407 72.7737C31.7832 73.058 30.3355 72.9341 28.9421 72.4047C27.3245 71.79 25.7883 71.0043 24.2999 70.1231C23.8815 69.8753 23.7758 69.9024 23.6141 70.3962C22.7133 73.1465 20.9977 75.3868 19.1516 77.5421C17.3412 79.6557 15.0114 80.8577 12.2863 81.2905C10.7369 81.5366 9.1953 81.3595 7.66723 81.0364C6.74249 80.8409 5.8714 80.4973 5.00465 80.1355C4.91958 80.1 4.82805 80.0799 4.73925 80.0535C4.1289 79.8719 4.08898 79.891 3.88325 80.4741C3.7908 80.7362 3.70947 81.0024 3.61052 81.262C2.47702 84.2356 0.307695 86.2046 -2.55085 87.4262C-4.51976 88.2676 -6.58109 88.7939 -8.76306 88.6637C-9.71856 88.6066 -10.6393 88.4286 -11.5345 88.0915C-12.0948 87.8804 -12.1426 87.9062 -12.267 88.504C-12.8002 91.0664 -13.8398 93.4335 -15.0058 95.758C-15.2538 96.2525 -15.6868 96.5654 -15.9872 97.0046C-16.7318 98.0933 -17.5007 99.1687 -18.4886 100.061C-18.6749 100.229 -18.8645 100.394 -19.1112 100.612C-19.163 100.274 -18.9534 100.134 -18.827 99.9833C-18.0827 99.094 -17.4141 98.1528 -16.7963 97.1716C-15.0246 94.3575 -14.0713 91.2602 -13.5797 87.9978C-13.4996 87.4665 -13.6357 87.106 -14.109 86.7778C-16.3122 85.2496 -17.8854 83.1929 -19.0178 80.7774C-19.4495 79.8567 -19.8934 78.9426 -20.2378 77.9841C-20.2841 77.8552 -20.3108 77.684 -20.4063 77.6145C-20.7093 77.3943 -20.6622 77.0886 -20.648 76.7961C-20.6222 76.2625 -20.6159 75.729 -20.7699 75.2154C-20.8366 74.9928 -20.7064 74.9141 -20.6178 74.7584C-20.2847 74.1734 -19.7702 73.9333 -19.1443 73.8442C-17.9682 73.6768 -16.8336 73.857 -15.7393 74.2853C-15.1211 74.5273 -14.6483 74.9761 -14.2452 75.4983C-13.5564 76.3906 -13.0847 77.391 -12.7618 78.4659C-12.1983 80.3416 -11.8751 82.257 -11.8858 84.2168C-11.8885 84.718 -11.7163 85.0215 -11.3045 85.2893C-9.94075 86.1764 -8.47331 86.7635 -6.85095 86.9381C-6.36643 86.9903 -5.88343 86.9914 -5.39793 86.8975C-2.48014 86.3335 -0.470476 84.6769 0.657553 81.9281C1.04709 80.9788 1.27884 79.9933 1.48836 78.9944C1.58219 78.547 1.43925 78.3143 1.07251 78.0976C-0.284748 77.2958 -1.6095 76.44 -2.88307 75.5115C-5.03814 73.9403 -7.06351 72.2109 -9.03068 70.4107C-9.32919 70.1376 -9.53977 69.6832 -10.08 69.7403C-10.1608 69.7488 -10.2684 69.5554 -10.3552 69.4486C-11.0565 68.5854 -11.7577 67.7221 -12.4551 66.8558C-13.3301 65.769 -14.1031 64.6134 -14.7087 63.3555C-16.0399 60.5899 -17.1369 57.7365 -17.6419 54.6965C-18.0232 52.4016 -18.1796 50.0908 -17.5868 47.796C-17.383 47.007 -17.0901 46.2559 -16.6469 45.5643C-16.2008 44.8679 -15.59 44.3767 -14.7973 44.183C-13.128 43.7752 -11.4883 43.6847 -9.86103 44.4889C-8.30701 45.257 -7.01272 46.2996 -5.95822 47.6563C-4.31652 49.7685 -2.96135 52.0634 -1.73234 54.431C1.07311 59.8355 2.96244 65.5555 4.05992 71.5395C4.26855 72.6771 4.40447 73.8264 4.42091 74.9861C4.4219 75.0556 4.42383 75.1251 4.42516 75.1946C4.43908 75.9175 4.69461 76.4058 5.42716 76.7412C7.48407 77.683 9.58483 78.4311 11.8427 78.6994C12.8197 78.8154 13.7868 78.7498 14.7519 78.6078C15.5208 78.4946 16.1223 78.0646 16.6513 77.5265C18.0285 76.1253 19.1474 74.5386 19.9612 72.7511C20.567 71.4205 20.9998 70.0269 21.3183 68.5984C21.4108 68.1834 21.3639 67.8716 20.9928 67.5661C17.7742 64.9161 15.048 61.7966 12.4753 58.536C11.2145 56.938 9.97924 55.3199 8.72944 53.7132C8.64699 53.6072 8.5843 53.4689 8.37415 53.4382C8.19878 53.6951 8.29291 53.9292 8.46168 54.1566C8.82055 54.6401 9.17501 55.1272 9.54445 55.6025C9.74409 55.8594 9.94262 56.1119 10.061 56.5042C9.77176 56.4158 9.62336 56.2236 9.45234 56.0656C8.01814 54.7399 6.79217 53.2336 5.62195 51.6767C3.41949 48.7466 1.34575 45.7329 -0.392048 42.4987C-1.23768 40.9249 -1.98012 39.3042 -2.59188 37.625C-2.83794 36.9496 -3.12368 36.2921 -3.42284 35.6386C-4.91705 32.3745 -5.85106 28.9712 -5.72741 25.3559C-5.62998 22.5072 -4.8354 19.8818 -2.89641 17.6887C-2.06986 16.7538 -1.1356 16.0533 0.157845 15.9482C0.555414 15.9159 0.939304 15.8947 1.31694 16.0608C1.74494 16.249 2.20595 16.3058 2.66487 16.3746C4.86215 16.7043 6.73731 17.7257 8.42536 19.1177C9.90366 20.3367 11.1163 21.796 12.1567 23.4006C13.7986 25.9327 15.1951 28.6014 16.53 31.3029C19.1909 36.6879 21.5953 42.181 23.4677 47.8957C24.3133 50.4763 24.9845 53.1002 25.3127 55.8005C25.6786 58.8111 25.6101 61.8161 25.0498 64.7984C24.9566 65.2941 25.0701 65.5614 25.4687 65.8325C27.5895 67.2756 29.8113 68.4999 32.3295 69.1038C33.3496 69.3484 34.381 69.4454 35.4325 69.3458C36.0061 69.2916 36.5052 69.1066 36.9627 68.7584C39.1918 67.0618 40.5994 64.8273 41.2613 62.1262C41.8299 59.8056 42.1773 57.4464 42.3043 55.0586C42.3375 54.4346 42.3136 53.8077 42.3332 53.1827C42.343 52.8652 42.2082 52.6715 41.9396 52.5143C39.5 51.0859 37.4606 49.1583 35.434 47.2246C34.3131 46.1551 33.2728 45.0008 32.2005 43.8807C32.0121 43.684 31.8137 43.4976 31.8446 43.1686C31.8652 42.9505 31.6614 42.8089 31.5312 42.6475C29.4385 40.0538 27.3564 37.4516 25.4657 34.7041C24.9841 34.0042 24.4254 33.3506 24.1717 32.4898C24.5038 32.9249 24.8359 33.3599 25.168 33.7949C25.1679 33.2929 24.9358 32.8941 24.6805 32.5144C23.8287 31.2476 23.031 29.9484 22.3239 28.5958C21.0907 26.2372 19.9135 23.854 18.9744 21.3568C18.3143 19.6015 17.5571 17.8819 17.035 16.077C16.9427 15.758 16.7261 15.4582 16.9691 15.054C17.0838 14.8632 16.8822 14.4823 16.8242 14.1875C16.6459 13.2809 16.3993 12.3862 16.3472 11.4576L16.3349 11.4585C16.5201 11.2165 16.458 10.974 16.3361 10.7314L16.351 10.7333ZM17.4375 3.35109C17.6419 3.30862 17.6798 3.17028 17.7074 2.96074C17.4787 3.0623 17.446 3.20346 17.4524 3.36534C17.2198 3.48933 17.1593 3.6946 17.1815 3.93895C16.8056 4.33281 16.7654 4.82616 16.7711 5.33276C16.9409 4.8756 17.2058 4.44515 17.1682 3.92846C17.3749 3.79057 17.4477 3.59017 17.4375 3.35109ZM31.2169 11.742C31.0037 11.2661 30.6626 10.8692 30.4272 10.3996C29.7602 9.06955 29.1979 7.68623 28.2887 6.47823C26.9239 4.665 25.2703 3.23957 23.1798 2.33091C22.667 2.10801 22.1641 2.06681 21.6246 2.20454C20.7813 2.41982 20.1921 2.93154 19.7969 3.68884C19.3829 4.48207 19.2031 5.34023 19.0987 6.21943C18.8418 8.38231 19.2556 10.4743 19.844 12.5292C21.145 17.0726 23.1257 21.3348 25.4585 25.4251C28.3675 30.5257 31.6609 35.3675 35.5335 39.8003C37.4091 41.9472 39.3022 44.0742 41.4645 45.9426C41.6109 46.0691 41.7205 46.2897 41.9787 46.2047C42.0464 46.0909 42.0098 45.9753 42.0025 45.8618C41.8944 44.1715 41.6185 42.5019 41.3553 40.8322C40.5022 35.4208 38.7351 30.2824 36.6511 25.2415C36.262 24.3002 35.7779 23.3935 35.45 22.4324C34.9044 20.8333 34.2828 19.2637 33.7007 17.6791C33.0951 16.0308 32.2488 14.4803 31.6933 12.8104C31.6418 12.6555 31.591 12.5032 31.4534 12.4C31.4777 12.1436 31.4559 11.9037 31.2169 11.742ZM14.9155 34.5458C14.9908 34.2787 14.8684 34.0507 14.7775 33.8127C14.1748 32.2347 13.3741 30.7452 12.7151 29.1924C11.7818 26.9932 10.6929 24.8732 9.4311 22.8449C8.70719 21.6813 7.88736 20.5906 6.85051 19.6772C5.86277 18.8071 4.744 18.1702 3.49438 17.7661C2.84033 17.5546 2.51272 17.6977 2.18822 18.2992C1.61433 19.3631 1.14257 20.4662 0.874495 21.6512C0.317423 24.1138 0.384298 26.5673 0.941875 29.0204C1.58884 31.8669 2.73575 34.519 4.09396 37.0832C6.4803 41.5885 9.21009 45.8936 11.837 50.2583C12.087 50.6737 12.3814 51.0645 12.677 51.4501C13.93 53.0847 15.1988 54.7073 16.4478 56.3449C18.034 58.4248 19.6704 60.4619 21.4873 62.347C21.6507 62.5165 21.7853 62.8658 22.0653 62.7428C22.3299 62.6265 22.2002 62.2859 22.1964 62.0459C22.1501 59.1524 21.732 56.3082 21.0478 53.4997C20.4733 51.1414 19.8429 48.7991 19.1396 46.4752C18.3618 43.905 17.5232 41.358 16.5062 38.8714C16.0071 37.6511 15.5121 36.4291 15.0229 35.2048C14.94 34.9974 14.7893 34.7917 14.9155 34.5458ZM1.64465 74.0742C1.75895 73.8624 1.74012 73.6971 1.72057 73.539C1.51305 71.8617 1.24448 70.1943 0.83922 68.5523C0.276485 66.2723 -0.476339 64.0526 -1.2414 61.8332C-1.97245 59.7124 -2.83489 57.6492 -3.77148 55.6182C-4.43691 54.1753 -5.22385 52.7878 -5.97838 51.3873C-6.08191 51.1951 -6.18945 50.9096 -6.53623 50.9366C-6.5532 51.2401 -6.27737 51.4487 -6.34093 51.7583C-6.6108 51.6265 -6.68991 51.3703 -6.8184 51.1609C-7.58197 49.9165 -8.33989 48.6685 -9.28888 47.5516C-9.92171 46.8067 -10.6141 46.1247 -11.442 45.5953C-11.9238 45.2872 -12.0015 45.305 -12.3407 45.7758C-12.7437 46.3351 -12.9215 46.9816 -13.0332 47.649C-13.2886 49.1747 -13.238 50.6994 -12.9555 52.213C-12.2346 56.0757 -10.6506 59.5889 -8.47393 62.8282C-5.86662 66.7084 -2.87248 70.2671 0.666613 73.3445C0.960592 73.6001 1.24061 73.8763 1.64465 74.0742ZM-13.7221 83.0414C-13.5856 82.8725 -13.6502 82.6845 -13.6781 82.5115C-13.7701 81.9408 -13.8589 81.3685 -13.9841 80.8046C-14.3172 79.3053 -14.7766 77.8566 -15.7033 76.5956C-16.0411 76.136 -16.4742 75.798 -16.9536 75.5142C-17.3136 75.301 -17.4625 75.396 -17.4332 75.8246C-17.4128 76.123 -17.3612 76.425 -17.2786 76.7124C-16.6363 78.948 -15.5302 80.941 -14.0769 82.7465C-13.986 82.8595 -13.9182 83.0341 -13.7221 83.0414ZM-15.7456 54.9244C-15.5433 56.524 -14.92 58.0006 -14.3731 59.5116C-13.8257 61.0238 -13.0831 62.4356 -12.3068 63.8172C-11.1611 65.8564 -9.89084 67.3033 -9.22238 67.5956C-12.1289 63.6678 -14.3956 59.5383 -15.7456 54.9244ZM24.9314 2.12311C25.6196 2.54452 26.3078 2.96592 26.9961 3.38732C26.514 2.65497 25.7946 2.29963 24.9314 2.12311ZM28.9948 5.063C29.0331 5.26151 29.1019 5.37034 29.2806 5.4211C29.2585 5.24893 29.1556 5.16651 28.9948 5.063ZM-6.88704 50.0067C-6.88894 49.93 -6.92275 49.8658 -6.99941 49.8605C-7.08063 49.8548 -7.12748 49.9189 -7.10147 49.9927C-7.08034 50.0527 -7.03004 50.134 -6.97929 50.1452C-6.88754 50.1654 -6.89883 50.0675 -6.88704 50.0067ZM16.522 7.20294C16.58 7.2112 16.6084 7.18507 16.6034 7.12771C16.598 7.06642 16.582 7.00606 16.5706 6.94529C16.5467 6.96994 16.5042 6.99346 16.5026 7.01946C16.4989 7.08106 16.5146 7.14384 16.522 7.20294ZM32.1957 7.70539C32.0974 7.70417 32.0607 7.75987 32.0826 7.82492C32.1005 7.87816 32.1501 7.93368 32.2004 7.95992C32.2674 7.99486 32.3248 7.95496 32.3261 7.87759C32.3278 7.78301 32.2782 7.71927 32.1957 7.70539ZM32.7657 8.60764C32.7282 8.62275 32.6662 8.62933 32.6574 8.65444C32.6221 8.75604 32.6823 8.83372 32.7601 8.88518C32.834 8.93403 32.8935 8.88976 32.9076 8.81246C32.9273 8.7044 32.8556 8.64683 32.7657 8.60764ZM-7.59186 48.9627C-7.57398 48.9617 -7.5561 48.9607 -7.53822 48.9596C-7.55819 48.9288 -7.57574 48.8958 -7.59961 48.8684C-7.60665 48.8603 -7.63156 48.8677 -7.64828 48.868C-7.62951 48.8996 -7.61074 48.9312 -7.59186 48.9627ZM16.6423 6.36703C16.6922 6.3829 16.7283 6.36388 16.7274 6.31036C16.7263 6.2494 16.7109 6.18868 16.7017 6.12786C16.6741 6.14963 16.6348 6.16586 16.6213 6.19433C16.5937 6.25206 16.5894 6.31516 16.6423 6.36703ZM33.2302 9.49091C33.2616 9.41287 33.2145 9.36375 33.1577 9.33357C33.1316 9.31973 33.0629 9.33211 33.0529 9.35224C33.0198 9.41847 33.0493 9.48227 33.1153 9.50947C33.146 9.52215 33.1919 9.49819 33.2302 9.49091ZM33.8091 10.5461C33.7557 10.5484 33.7222 10.5807 33.739 10.6334C33.7509 10.6706 33.7865 10.7172 33.8204 10.7264C33.8719 10.7404 33.9114 10.6962 33.8944 10.6465C33.8811 10.6078 33.8387 10.5791 33.8091 10.5461ZM-15.545 45.9229C-15.5178 45.8728 -15.5294 45.8197 -15.5827 45.8166C-15.6824 45.8108 -15.7409 45.8842 -15.7693 45.9697C-15.7798 46.0012 -15.7497 46.0796 -15.7383 46.0795C-15.6364 46.0793 -15.5963 45.9926 -15.545 45.9229ZM-22.5636 75.8329C-22.9943 76.6403 -23.0843 77.4989 -22.9291 78.394C-22.7857 79.2212 -22.4891 79.9965 -22.1572 80.7615C-21.3976 82.5127 -20.2231 83.9566 -18.8305 85.2357C-18.4731 85.5639 -18.4612 85.5509 -17.972 85.4662C-18.1145 85.3297 -18.246 85.2008 -18.3808 85.0754C-20.3524 83.2413 -21.5301 80.94 -22.2717 78.3942C-22.6334 77.1523 -22.4817 76.0017 -21.4574 75.0783C-21.9237 75.0746 -22.2866 75.3136 -22.5636 75.8329ZM29.7916 41.2157C29.6917 40.872 29.4438 40.621 29.2359 40.348C27.9185 38.6187 26.5737 36.9128 25.3592 35.1041C23.2165 31.9132 21.0985 28.7106 19.3257 25.2933C19.2676 25.1814 19.2439 24.9948 18.9871 24.9558C19.0601 25.1098 19.0991 25.191 19.1372 25.2727C20.1178 27.3739 21.3773 29.3196 22.5203 31.3299C24.1272 34.156 25.9986 36.8039 28.0405 39.3305C28.5623 39.9761 29.0327 40.6704 29.674 41.2139C29.7132 41.2144 29.7524 41.215 29.7916 41.2157ZM32.5893 6.307C32.4408 5.77099 32.2343 5.45234 31.8886 5.22471C31.8563 5.25518 31.8237 5.28544 31.791 5.31548C31.9544 5.66729 32.1504 5.9919 32.5893 6.307ZM30.4675 42.027C30.2689 41.6037 30.0376 41.4035 29.7916 41.2157C29.7524 41.215 29.7132 41.2144 29.674 41.2139C29.8361 41.5176 30.0165 41.803 30.4675 42.027ZM32.851 6.95215C32.8865 7.00176 32.9312 7.07408 32.9783 7.07938C33.054 7.0879 33.0847 7.00534 33.0504 6.94709C33.0231 6.90071 32.9541 6.87881 32.9168 6.85456C32.8406 6.8721 32.8193 6.90779 32.851 6.95215ZM-9.57864 70.2011C-9.59753 70.1782 -9.65317 70.1857 -9.69219 70.1794C-9.67121 70.2369 -9.65901 70.3004 -9.62534 70.3491C-9.60975 70.3717 -9.55226 70.3652 -9.49252 70.3756C-9.52361 70.3089 -9.54102 70.2466 -9.57864 70.2011ZM-8.82767 71.2054C-8.81252 71.2466 -8.80732 71.2968 -8.7799 71.3267C-8.73819 71.3721 -8.68958 71.3561 -8.69769 71.3056C-8.70387 71.2672 -8.74703 71.2347 -8.77398 71.1998C-8.79203 71.2018 -8.80985 71.2036 -8.82767 71.2054ZM16.3348 11.4585C16.3352 11.2161 16.3356 10.9738 16.336 10.7314C16.3361 10.7314 16.351 10.7333 16.351 10.7334C16.2075 10.9741 16.2993 11.2159 16.3472 11.4576L16.3348 11.4585Z" fill="#1B1B1B"/>
</svg>
