<svg width="85" height="101" viewBox="0 0 85 101" fill="none" xmlns="http://www.w3.org/2000/svg">
<path d="M39.351 10.7333C39.2806 9.76664 39.1493 8.79967 39.1536 7.83331C39.1608 6.22973 39.3455 4.64497 40.185 3.22132C40.4677 2.74174 40.7855 2.26887 41.3094 2.02612C41.7695 1.81292 42.1634 1.48896 42.7403 1.47875C43.6349 1.46291 44.5239 1.18135 45.4259 1.31425C45.9528 1.39188 46.4733 1.50645 47.0063 1.44395C47.2403 1.41651 47.6335 1.59754 47.6757 1.32143C47.725 0.999268 47.3039 1.08228 47.0816 1.00929C46.1733 0.711097 45.2509 0.640127 44.2877 0.656326C43.6209 0.667544 42.9681 0.690203 42.3075 0.814356C42.6712 0.46423 43.1333 0.338208 43.5875 0.242598C45.3857 -0.13594 47.1853 -0.0603745 48.956 0.391746C50.5951 0.810297 51.9128 1.79263 53.1028 2.95759C53.6662 3.50921 54.1766 4.10868 54.6503 4.73912C54.7605 4.88574 54.9013 5.01767 54.8886 5.22471C54.8563 5.25518 54.8237 5.28544 54.791 5.31548C54.3135 4.75236 53.8301 4.19411 53.3596 3.62519C52.1958 2.21783 50.6798 1.32675 49.0189 0.645507C48.9547 0.619172 48.8867 0.59802 48.7956 0.700659C49.0569 0.880035 49.3097 1.06569 49.5742 1.23296C50.5845 1.87198 51.3358 2.79898 52.2096 3.58972C55.1025 6.20779 56.988 9.51778 58.6531 12.9766C60.0805 15.9415 61.2226 19.024 62.3657 22.1049C63.3721 24.8176 64.3532 27.5398 65.3523 30.2554C66.4566 33.2572 67.3422 36.3224 68.0942 39.4307C68.9048 42.7804 69.672 46.1382 70.2869 49.5298C70.3321 49.7792 70.3465 50.0237 70.6284 50.1647C72.0365 50.8693 73.4263 51.6242 75.0118 51.8576C75.4473 51.9217 75.9342 52.1112 76.2965 51.638C76.3596 51.5556 76.4729 51.5777 76.5417 51.6498C76.7217 51.8389 76.8751 51.735 77.0253 51.6156C78.3816 50.5375 79.4667 49.2744 79.7917 47.5041C79.9584 46.5966 79.8202 45.7022 79.6356 44.8144C79.2087 42.7618 78.545 40.7918 77.5414 38.9455C77.3094 38.5186 77.2105 38.0638 77.1702 37.5839C78.9247 39.8296 79.667 42.5037 80.4042 45.3285C80.5999 44.8829 80.6279 44.5446 80.6028 44.1844C80.4489 41.9786 79.8822 39.9072 78.6467 38.0458C78.4587 37.7627 78.3061 37.4562 78.1308 37.1495C78.4609 37.0634 78.7424 37.0918 78.9964 36.7969C79.2435 36.5099 79.6888 36.6465 80.0402 36.8059C80.1415 36.8519 80.3119 36.9456 80.3281 36.8096C80.4066 36.1524 80.7708 36.5763 80.9553 36.6639C81.5902 36.9653 81.9653 37.5373 82.2915 38.1288C82.91 39.2503 83.3466 40.4461 83.6628 41.6852C83.9268 42.7194 84.1077 43.7695 84.2079 44.8321C84.3512 46.3516 83.9627 47.6796 82.7798 48.7134C82.6402 48.8354 82.5026 48.9596 82.3648 49.0836C81.694 49.6866 81.097 50.3347 80.5761 51.092C79.1875 53.1107 77.1963 54.273 74.824 54.8193C73.0025 55.2386 71.1986 55.2489 69.4025 54.682C68.8923 54.521 68.8634 54.5387 68.7845 55.06C68.5524 56.5943 68.2918 58.1236 67.8532 59.6132C66.5242 64.126 64.0614 67.8867 60.3274 70.774C59.1102 71.7153 57.7724 72.475 56.2407 72.7737C54.7832 73.058 53.3355 72.9341 51.9421 72.4047C50.3245 71.79 48.7883 71.0043 47.2999 70.1231C46.8815 69.8753 46.7758 69.9024 46.6141 70.3962C45.7133 73.1465 43.9977 75.3868 42.1516 77.5421C40.3412 79.6557 38.0114 80.8577 35.2863 81.2905C33.7369 81.5366 32.1953 81.3595 30.6672 81.0364C29.7425 80.8409 28.8714 80.4973 28.0047 80.1355C27.9196 80.1 27.828 80.0799 27.7393 80.0535C27.1289 79.8719 27.089 79.891 26.8833 80.4741C26.7908 80.7362 26.7095 81.0024 26.6105 81.262C25.477 84.2356 23.3077 86.2046 20.4491 87.4262C18.4802 88.2676 16.4189 88.7939 14.2369 88.6637C13.2814 88.6066 12.3607 88.4286 11.4655 88.0915C10.9052 87.8804 10.8574 87.9062 10.733 88.504C10.1998 91.0664 9.16018 93.4335 7.99421 95.758C7.74616 96.2525 7.31319 96.5654 7.01278 97.0046C6.26816 98.0933 5.49925 99.1687 4.51143 100.061C4.32513 100.229 4.13552 100.394 3.88884 100.612C3.83696 100.274 4.04663 100.134 4.17298 99.9833C4.91728 99.094 5.58593 98.1528 6.20367 97.1716C7.97541 94.3575 8.92866 91.2602 9.42029 87.9978C9.50036 87.4665 9.36434 87.106 8.89103 86.7778C6.68784 85.2496 5.11461 83.1929 3.98216 80.7774C3.55048 79.8567 3.10661 78.9426 2.76221 77.9841C2.71589 77.8552 2.68922 77.684 2.59369 77.6145C2.29068 77.3943 2.3378 77.0886 2.35196 76.7961C2.37779 76.2625 2.38414 75.729 2.23013 75.2154C2.16339 74.9928 2.2936 74.9141 2.38225 74.7584C2.71528 74.1734 3.2298 73.9333 3.85569 73.8442C5.03182 73.6768 6.1664 73.857 7.26065 74.2853C7.87888 74.5273 8.35175 74.9761 8.75484 75.4983C9.44364 76.3906 9.9153 77.391 10.2382 78.4659C10.8017 80.3416 11.1249 82.257 11.1142 84.2168C11.1115 84.718 11.2837 85.0215 11.6955 85.2893C13.0592 86.1764 14.5267 86.7635 16.1491 86.9381C16.6336 86.9903 17.1166 86.9914 17.6021 86.8975C20.5199 86.3335 22.5295 84.6769 23.6576 81.9281C24.0471 80.9788 24.2788 79.9933 24.4884 78.9944C24.5822 78.547 24.4392 78.3143 24.0725 78.0976C22.7153 77.2958 21.3905 76.44 20.1169 75.5115C17.9619 73.9403 15.9365 72.2109 13.9693 70.4107C13.6708 70.1376 13.4602 69.6832 12.92 69.7403C12.8392 69.7488 12.7316 69.5554 12.6448 69.4486C11.9435 68.5854 11.2423 67.7221 10.5449 66.8558C9.66986 65.769 8.89685 64.6134 8.29134 63.3555C6.96007 60.5899 5.86307 57.7365 5.35806 54.6965C4.97683 52.4016 4.82036 50.0908 5.41321 47.796C5.61704 47.007 5.9099 46.2559 6.35306 45.5643C6.79925 44.8679 7.40998 44.3767 8.20271 44.183C9.87196 43.7752 11.5117 43.6847 13.139 44.4889C14.693 45.257 15.9873 46.2996 17.0418 47.6563C18.6835 49.7685 20.0387 52.0634 21.2677 54.431C24.0731 59.8355 25.9624 65.5555 27.0599 71.5395C27.2686 72.6771 27.4045 73.8264 27.4209 74.9861C27.4219 75.0556 27.4238 75.1251 27.4252 75.1946C27.4391 75.9175 27.6946 76.4058 28.4272 76.7412C30.4841 77.683 32.5848 78.4311 34.8427 78.6994C35.8197 78.8154 36.7868 78.7498 37.7519 78.6078C38.5208 78.4946 39.1223 78.0646 39.6513 77.5265C41.0285 76.1253 42.1474 74.5386 42.9612 72.7511C43.567 71.4205 43.9998 70.0269 44.3183 68.5984C44.4108 68.1834 44.3639 67.8716 43.9928 67.5661C40.7742 64.9161 38.048 61.7966 35.4753 58.536C34.2145 56.938 32.9792 55.3199 31.7294 53.7132C31.647 53.6072 31.5843 53.4689 31.3741 53.4382C31.1988 53.6951 31.2929 53.9292 31.4617 54.1566C31.8206 54.6401 32.175 55.1272 32.5444 55.6025C32.7441 55.8594 32.9426 56.1119 33.061 56.5042C32.7718 56.4158 32.6234 56.2236 32.4523 56.0656C31.0181 54.7399 29.7922 53.2336 28.622 51.6767C26.4195 48.7466 24.3458 45.7329 22.608 42.4987C21.7623 40.9249 21.0199 39.3042 20.4081 37.625C20.1621 36.9496 19.8763 36.2921 19.5772 35.6386C18.083 32.3745 17.1489 28.9712 17.2726 25.3559C17.37 22.5072 18.1646 19.8818 20.1036 17.6887C20.9301 16.7538 21.8644 16.0533 23.1578 15.9482C23.5554 15.9159 23.9393 15.8947 24.3169 16.0608C24.7449 16.249 25.2059 16.3058 25.6649 16.3746C27.8621 16.7043 29.7373 17.7257 31.4254 19.1177C32.9037 20.3367 34.1163 21.796 35.1567 23.4006C36.7986 25.9327 38.1951 28.6014 39.53 31.3029C42.1909 36.6879 44.5953 42.181 46.4677 47.8957C47.3133 50.4763 47.9845 53.1002 48.3127 55.8005C48.6786 58.8111 48.6101 61.8161 48.0498 64.7984C47.9566 65.2941 48.0701 65.5614 48.4687 65.8325C50.5895 67.2756 52.8113 68.4999 55.3295 69.1038C56.3496 69.3484 57.381 69.4454 58.4325 69.3458C59.0061 69.2916 59.5052 69.1066 59.9627 68.7584C62.1918 67.0618 63.5994 64.8273 64.2613 62.1262C64.8299 59.8056 65.1773 57.4464 65.3043 55.0586C65.3375 54.4346 65.3136 53.8077 65.3332 53.1827C65.343 52.8652 65.2082 52.6715 64.9396 52.5143C62.5 51.0859 60.4606 49.1583 58.434 47.2246C57.3131 46.1551 56.2728 45.0008 55.2005 43.8807C55.0121 43.684 54.8137 43.4976 54.8446 43.1686C54.8652 42.9505 54.6614 42.8089 54.5312 42.6475C52.4385 40.0538 50.3564 37.4516 48.4657 34.7041C47.9841 34.0042 47.4254 33.3506 47.1717 32.4898C47.5038 32.9249 47.8359 33.3599 48.168 33.7949C48.1679 33.2929 47.9358 32.8941 47.6805 32.5144C46.8287 31.2476 46.031 29.9484 45.3239 28.5958C44.0907 26.2372 42.9135 23.854 41.9744 21.3568C41.3143 19.6015 40.5571 17.8819 40.035 16.077C39.9427 15.758 39.7261 15.4582 39.9691 15.054C40.0838 14.8632 39.8822 14.4823 39.8242 14.1875C39.6459 13.2809 39.3993 12.3862 39.3472 11.4576L39.3349 11.4585C39.5201 11.2165 39.458 10.974 39.3361 10.7314L39.351 10.7333ZM40.4375 3.35109C40.6419 3.30862 40.6798 3.17028 40.7074 2.96074C40.4787 3.0623 40.446 3.20346 40.4524 3.36534C40.2198 3.48933 40.1593 3.6946 40.1815 3.93895C39.8056 4.33281 39.7654 4.82616 39.7711 5.33276C39.9409 4.8756 40.2058 4.44515 40.1682 3.92846C40.3749 3.79057 40.4477 3.59017 40.4375 3.35109ZM54.2169 11.742C54.0037 11.2661 53.6626 10.8692 53.4272 10.3996C52.7602 9.06955 52.1979 7.68623 51.2887 6.47823C49.9239 4.665 48.2703 3.23957 46.1798 2.33091C45.667 2.10801 45.1641 2.06681 44.6246 2.20454C43.7813 2.41982 43.1921 2.93154 42.7969 3.68884C42.3829 4.48207 42.2031 5.34023 42.0987 6.21943C41.8418 8.38231 42.2556 10.4743 42.844 12.5292C44.145 17.0726 46.1257 21.3348 48.4585 25.4251C51.3675 30.5257 54.6609 35.3675 58.5335 39.8003C60.4091 41.9472 62.3022 44.0742 64.4645 45.9426C64.6109 46.0691 64.7205 46.2897 64.9787 46.2047C65.0464 46.0909 65.0098 45.9753 65.0025 45.8618C64.8944 44.1715 64.6185 42.5019 64.3553 40.8322C63.5022 35.4208 61.7351 30.2824 59.6511 25.2415C59.262 24.3002 58.7779 23.3935 58.45 22.4324C57.9044 20.8333 57.2828 19.2637 56.7007 17.6791C56.0951 16.0308 55.2488 14.4803 54.6933 12.8104C54.6418 12.6555 54.591 12.5032 54.4534 12.4C54.4777 12.1436 54.4559 11.9037 54.2169 11.742ZM37.9155 34.5458C37.9908 34.2787 37.8684 34.0507 37.7775 33.8127C37.1748 32.2347 36.3741 30.7452 35.7151 29.1924C34.7818 26.9932 33.6929 24.8732 32.4311 22.8449C31.7072 21.6813 30.8874 20.5906 29.8505 19.6772C28.8628 18.8071 27.744 18.1702 26.4944 17.7661C25.8403 17.5546 25.5127 17.6977 25.1882 18.2992C24.6143 19.3631 24.1426 20.4662 23.8745 21.6512C23.3174 24.1138 23.3843 26.5673 23.9419 29.0204C24.5888 31.8669 25.7357 34.519 27.094 37.0832C29.4803 41.5885 32.2101 45.8936 34.837 50.2583C35.087 50.6737 35.3814 51.0645 35.677 51.4501C36.93 53.0847 38.1988 54.7073 39.4478 56.3449C41.034 58.4248 42.6704 60.4619 44.4873 62.347C44.6507 62.5165 44.7853 62.8658 45.0653 62.7428C45.3299 62.6265 45.2002 62.2859 45.1964 62.0459C45.1501 59.1524 44.732 56.3082 44.0478 53.4997C43.4733 51.1414 42.8429 48.7991 42.1396 46.4752C41.3618 43.905 40.5232 41.358 39.5062 38.8714C39.0071 37.6511 38.5121 36.4291 38.0229 35.2048C37.94 34.9974 37.7893 34.7917 37.9155 34.5458ZM24.6447 74.0742C24.7589 73.8624 24.7401 73.6971 24.7206 73.539C24.5131 71.8617 24.2445 70.1943 23.8392 68.5523C23.2765 66.2723 22.5237 64.0526 21.7586 61.8332C21.0276 59.7124 20.1651 57.6492 19.2285 55.6182C18.5631 54.1753 17.7761 52.7878 17.0216 51.3873C16.9181 51.1951 16.8106 50.9096 16.4638 50.9366C16.4468 51.2401 16.7226 51.4487 16.6591 51.7583C16.3892 51.6265 16.3101 51.3703 16.1816 51.1609C15.418 49.9165 14.6601 48.6685 13.7111 47.5516C13.0783 46.8067 12.3859 46.1247 11.558 45.5953C11.0762 45.2872 10.9985 45.305 10.6593 45.7758C10.2563 46.3351 10.0785 46.9816 9.96678 47.649C9.71143 49.1747 9.76199 50.6994 10.0445 52.213C10.7654 56.0757 12.3494 59.5889 14.5261 62.8282C17.1334 66.7084 20.1275 70.2671 23.6666 73.3445C23.9606 73.6001 24.2406 73.8763 24.6447 74.0742ZM9.2779 83.0414C9.41435 82.8725 9.34977 82.6845 9.32188 82.5115C9.22987 81.9408 9.14111 81.3685 9.01587 80.8046C8.68284 79.3053 8.2234 77.8566 7.29669 76.5956C6.9589 76.136 6.52581 75.798 6.0464 75.5142C5.68637 75.301 5.53754 75.396 5.56679 75.8246C5.58716 76.123 5.6388 76.425 5.72138 76.7124C6.3637 78.948 7.46981 80.941 8.92311 82.7465C9.01405 82.8595 9.08182 83.0341 9.2779 83.0414ZM7.25441 54.9244C7.45675 56.524 8.08 58.0006 8.62692 59.5116C9.1743 61.0238 9.91691 62.4356 10.6932 63.8172C11.8389 65.8564 13.1092 67.3033 13.7776 67.5956C10.8711 63.6678 8.60438 59.5383 7.25441 54.9244ZM47.9314 2.12311C48.6196 2.54452 49.3078 2.96592 49.9961 3.38732C49.514 2.65497 48.7946 2.29963 47.9314 2.12311ZM51.9948 5.063C52.0331 5.26151 52.1019 5.37034 52.2806 5.4211C52.2585 5.24893 52.1556 5.16651 51.9948 5.063ZM16.113 50.0067C16.1111 49.93 16.0773 49.8658 16.0006 49.8605C15.9194 49.8548 15.8725 49.9189 15.8985 49.9927C15.9197 50.0527 15.97 50.134 16.0207 50.1452C16.1125 50.1654 16.1012 50.0675 16.113 50.0067ZM39.522 7.20294C39.58 7.2112 39.6084 7.18507 39.6034 7.12771C39.598 7.06642 39.582 7.00606 39.5706 6.94529C39.5467 6.96994 39.5042 6.99346 39.5026 7.01946C39.4989 7.08106 39.5146 7.14384 39.522 7.20294ZM55.1957 7.70539C55.0974 7.70417 55.0607 7.75987 55.0826 7.82492C55.1005 7.87816 55.1501 7.93368 55.2004 7.95992C55.2674 7.99486 55.3248 7.95496 55.3261 7.87759C55.3278 7.78301 55.2782 7.71927 55.1957 7.70539ZM55.7657 8.60764C55.7282 8.62275 55.6662 8.62933 55.6574 8.65444C55.6221 8.75604 55.6823 8.83372 55.7601 8.88518C55.834 8.93403 55.8935 8.88976 55.9076 8.81246C55.9273 8.7044 55.8556 8.64683 55.7657 8.60764ZM15.4081 48.9627C15.426 48.9617 15.4439 48.9607 15.4618 48.9596C15.4418 48.9288 15.4243 48.8958 15.4004 48.8684C15.3934 48.8603 15.3684 48.8677 15.3517 48.868C15.3705 48.8996 15.3893 48.9312 15.4081 48.9627ZM39.6423 6.36703C39.6922 6.3829 39.7283 6.36388 39.7274 6.31036C39.7263 6.2494 39.7109 6.18868 39.7017 6.12786C39.6741 6.14963 39.6348 6.16586 39.6213 6.19433C39.5937 6.25206 39.5894 6.31516 39.6423 6.36703ZM56.2302 9.49091C56.2616 9.41287 56.2145 9.36375 56.1577 9.33357C56.1316 9.31973 56.0629 9.33211 56.0529 9.35224C56.0198 9.41847 56.0493 9.48227 56.1153 9.50947C56.146 9.52215 56.1919 9.49819 56.2302 9.49091ZM56.8091 10.5461C56.7557 10.5484 56.7222 10.5807 56.739 10.6334C56.7509 10.6706 56.7865 10.7172 56.8204 10.7264C56.8719 10.7404 56.9114 10.6962 56.8944 10.6465C56.8811 10.6078 56.8387 10.5791 56.8091 10.5461ZM7.455 45.9229C7.48215 45.8728 7.47063 45.8197 7.41734 45.8166C7.31761 45.8108 7.25906 45.8842 7.23067 45.9697C7.22024 46.0012 7.25026 46.0796 7.26172 46.0795C7.36362 46.0793 7.40373 45.9926 7.455 45.9229ZM0.436385 75.8329C0.00568505 76.6403 -0.0842703 77.4989 0.0708662 78.394C0.214255 79.2212 0.51094 79.9965 0.842775 80.7615C1.60242 82.5127 2.7769 83.9566 4.16955 85.2357C4.5269 85.5639 4.53884 85.5509 5.02801 85.4662C4.88546 85.3297 4.75401 85.2008 4.61923 85.0754C2.64762 83.2413 1.46994 80.94 0.728345 78.3942C0.366576 77.1523 0.518287 76.0017 1.54263 75.0783C1.07629 75.0746 0.71341 75.3136 0.436385 75.8329ZM52.7916 41.2157C52.6917 40.872 52.4438 40.621 52.2359 40.348C50.9185 38.6187 49.5737 36.9128 48.3592 35.1041C46.2165 31.9132 44.0985 28.7106 42.3257 25.2933C42.2676 25.1814 42.2439 24.9948 41.9871 24.9558C42.0601 25.1098 42.0991 25.191 42.1372 25.2727C43.1178 27.3739 44.3773 29.3196 45.5203 31.3299C47.1272 34.156 48.9986 36.8039 51.0405 39.3305C51.5623 39.9761 52.0327 40.6704 52.674 41.2139C52.7132 41.2144 52.7524 41.215 52.7916 41.2157ZM55.5893 6.307C55.4408 5.77099 55.2343 5.45234 54.8886 5.22471C54.8563 5.25518 54.8237 5.28544 54.791 5.31548C54.9544 5.66729 55.1504 5.9919 55.5893 6.307ZM53.4675 42.027C53.2689 41.6037 53.0376 41.4035 52.7916 41.2157C52.7524 41.215 52.7132 41.2144 52.674 41.2139C52.8361 41.5176 53.0165 41.803 53.4675 42.027ZM55.851 6.95215C55.8865 7.00176 55.9312 7.07408 55.9783 7.07938C56.054 7.0879 56.0847 7.00534 56.0504 6.94709C56.0231 6.90071 55.9541 6.87881 55.9168 6.85456C55.8406 6.8721 55.8193 6.90779 55.851 6.95215ZM13.4214 70.2011C13.4025 70.1782 13.3468 70.1857 13.3078 70.1794C13.3288 70.2369 13.341 70.3004 13.3747 70.3491C13.3903 70.3717 13.4477 70.3652 13.5075 70.3756C13.4764 70.3089 13.459 70.2466 13.4214 70.2011ZM14.1723 71.2054C14.1875 71.2466 14.1927 71.2968 14.2201 71.3267C14.2618 71.3721 14.3104 71.3561 14.3023 71.3056C14.2961 71.2672 14.253 71.2347 14.226 71.1998C14.208 71.2018 14.1901 71.2036 14.1723 71.2054ZM39.3348 11.4585C39.3352 11.2161 39.3356 10.9738 39.336 10.7314C39.3361 10.7314 39.351 10.7333 39.351 10.7334C39.2075 10.9741 39.2993 11.2159 39.3472 11.4576L39.3348 11.4585Z" fill="#1B1B1B"/>
</svg>
