<svg width="101" height="34" viewBox="0 0 101 34" fill="none" xmlns="http://www.w3.org/2000/svg">
<mask id="mask0_10_10334" style="mask-type:luminance" maskUnits="userSpaceOnUse" x="0" y="0" width="101" height="34">
<path d="M100.982 24.7833V24.6246L64.2855 0H1.34764L0 2.36982V16.0587L26.7367 34H95.7407L100.982 24.7833Z" fill="white"/>
</mask>
<g mask="url(#mask0_10_10334)">
<mask id="mask1_10_10334" style="mask-type:luminance" maskUnits="userSpaceOnUse" x="0" y="0" width="101" height="34">
<path d="M100.982 24.7833V24.4369L64.5651 0H1.34764L0 2.36981V15.8711L27.0164 34H95.7407L100.982 24.7833Z" fill="white"/>
</mask>
<g mask="url(#mask1_10_10334)">
<path d="M8.23792 4.77721C8.17577 4.86348 8.18357 5.01089 8.27831 5.07447C8.16651 6.12275 7.91714 5.5715 8.1074 6.59497C8.13637 6.72816 8.20632 6.78932 8.25647 6.90828C8.83075 7.76287 9.46578 8.4876 10.1928 9.18873C10.4834 9.48328 10.8362 9.69157 11.1692 9.95768C18.5251 15.69 26.3218 20.8081 34.5575 24.671C40.1455 27.2974 45.9196 29.3662 51.8319 30.7315C61.6241 33.0083 71.7633 33.5699 81.9612 31.6115C88.2978 30.3893 94.5749 28.0749 100.872 24.8499C100.961 24.8097 101.01 24.7004 100.973 24.6044C100.926 24.5021 100.826 24.4488 100.737 24.4891C95.549 26.1548 90.4516 27.0853 85.3999 27.7052C77.5345 28.6694 69.8926 28.5039 62.4005 27.3156C53.8676 25.9549 45.6031 23.2245 37.5836 19.6489C29.5889 16.0758 21.837 11.6845 14.4771 6.60358C13.8198 6.14827 13.207 5.63755 12.5146 5.24399C11.7842 4.82499 11.0558 4.56369 10.3071 4.2461C10.1474 4.18161 10.017 4.06566 9.84699 4.06535C8.84157 4.13006 9.43009 4.26904 8.53054 4.74605C8.42268 4.65947 8.30592 4.68065 8.23792 4.77721ZM11.0563 4.67781C17.1502 4.75724 25.6812 5.47677 32.2789 5.75208C36.5706 5.91614 40.0091 5.87733 41.4375 5.89741C41.7103 5.92407 41.9383 5.70734 41.957 5.42128C41.9851 5.14158 41.782 4.8773 41.5245 4.84671C40.1161 4.58416 36.7468 3.7878 32.4997 3.08492C28.3766 2.39415 23.461 1.85408 18.8723 1.29164C12.9465 0.571384 7.55519 0.0391503 4.94186 0.0771102C4.58657 0.0804218 4.27195 0.196331 4.01669 0.138798C2.88198 -0.167623 2.62615 0.144152 2.10979 0.0393775C1.14449 0.102578 0.990614 0.994652 0.531623 1.52557C-0.312512 2.48056 -0.0514811 3.97809 0.641473 5.45264C1.11264 6.46554 3.08913 7.77761 3.81054 8.78781C6.46768 12.4478 9.21678 16.0841 12.188 19.514C14.8541 22.5827 17.6693 25.4814 20.5831 28.2756C22.5493 30.1353 24.555 31.8793 26.5666 33.6131C26.7619 33.7299 26.9316 33.9149 27.1584 33.9534C28.4436 34.1333 28.202 33.7294 29.4792 33.4631C29.5681 33.537 29.7169 33.5515 29.7907 33.4447C29.8646 33.3378 29.8663 33.1968 29.7679 33.1166C29.8686 31.7196 30.2615 31.9263 29.9397 30.5587C29.8832 30.3359 29.7302 30.1906 29.6159 30.0001C25.9584 25.9817 22.499 21.6839 19.0126 17.4106C15.5975 13.2421 12.1577 9.07111 9.01429 4.70098C9.64909 4.64351 10.3327 4.66141 11.0563 4.67781ZM5.95778 1.69728C5.6713 2.01692 5.90786 2.36051 6.34869 2.7132C6.34092 2.08236 6.30419 1.31831 5.95778 1.69728ZM4.59938 4.9377C4.4358 5.04121 4.57762 5.32123 4.5804 5.40841C4.72112 5.46018 5.00257 5.56373 5.04801 5.43781C5.15057 5.16538 5.50836 5.4339 5.59114 5.21929C5.67029 4.98802 5.77564 4.80277 5.88683 4.60723C5.33228 4.66167 4.90899 4.76154 4.59938 4.9377Z" fill="#1B1B1B"/>
</g>
</g>
</svg>
