<?xml version="1.0" standalone="no"?>
<!DOCTYPE svg PUBLIC "-//W3C//DTD SVG 20010904//EN"
 "http://www.w3.org/TR/2001/REC-SVG-20010904/DTD/svg10.dtd">
<svg version="1.0" xmlns="http://www.w3.org/2000/svg"
 width="171.000000pt" height="127.000000pt" viewBox="0 0 171.000000 127.000000"
 preserveAspectRatio="xMidYMid meet">

<g transform="translate(0.000000,127.000000) scale(0.100000,-0.100000)"
fill="#000000" stroke="none">
<path d="M0 635 l0 -635 855 0 855 0 0 635 0 635 -855 0 -855 0 0 -635z m1335
549 c-38 -34 -123 -116 -377 -363 l-117 -114 -315 189 c-174 104 -315 191
-316 194 0 6 1062 128 1125 129 l40 1 -40 -36z m119 -36 c3 -13 26 -218 52
-456 47 -428 48 -433 28 -452 -16 -16 -92 -27 -569 -80 -672 -75 -658 -74
-688 -66 -14 3 -28 14 -32 23 -8 21 -106 882 -103 900 2 8 149 -75 351 -197
191 -116 351 -210 354 -210 7 0 194 176 418 394 94 91 173 165 177 166 4 0 10
-10 12 -22z"/>
</g>
</svg>
