<?xml version="1.0" standalone="no"?>
<!DOCTYPE svg PUBLIC "-//W3C//DTD SVG 20010904//EN"
 "http://www.w3.org/TR/2001/REC-SVG-20010904/DTD/svg10.dtd">
<svg version="1.0" xmlns="http://www.w3.org/2000/svg"
 width="109.000000pt" height="162.000000pt" viewBox="0 0 109.000000 162.000000"
 preserveAspectRatio="xMidYMid meet">

<g transform="translate(0.000000,162.000000) scale(0.100000,-0.100000)"
fill="#000000" stroke="none">
<path d="M0 810 l0 -810 545 0 545 0 0 810 0 810 -545 0 -545 0 0 -810z m670
750 c117 -34 222 -117 288 -229 56 -96 78 -256 48 -366 -16 -63 -369 -876
-378 -872 -11 4 -501 674 -541 740 -51 84 -68 146 -68 247 0 200 98 361 273
449 125 63 236 72 378 31z"/>
<path d="M407 1294 c-129 -67 -164 -244 -70 -353 52 -61 104 -85 183 -85 134
0 231 96 231 229 0 93 -53 177 -136 216 -59 27 -148 25 -208 -7z"/>
</g>
</svg>
