<?xml version="1.0" standalone="no"?>
<!DOCTYPE svg PUBLIC "-//W3C//DTD SVG 20010904//EN"
 "http://www.w3.org/TR/2001/REC-SVG-20010904/DTD/svg10.dtd">
<svg version="1.0" xmlns="http://www.w3.org/2000/svg"
 width="222.000000pt" height="274.000000pt" viewBox="0 0 222.000000 274.000000"
 preserveAspectRatio="xMidYMid meet">

<g transform="translate(0.000000,274.000000) scale(0.100000,-0.100000)"
fill="#000000" stroke="none">
<path d="M967 2564 c-405 -73 -717 -447 -717 -859 0 -260 250 -739 698 -1337
186 -250 178 -250 364 0 448 598 698 1077 698 1337 0 221 -95 450 -255 611
-207 210 -496 301 -788 248z m375 -177 c117 -37 203 -90 294 -181 90 -90 143
-176 182 -294 20 -63 25 -98 26 -192 0 -101 -3 -125 -27 -195 -39 -113 -140
-318 -232 -470 -132 -221 -434 -655 -455 -655 -22 0 -343 464 -468 676 -87
147 -181 341 -219 449 -24 70 -27 94 -27 195 1 94 6 129 26 192 39 118 92 204
182 294 110 110 236 177 381 204 86 16 251 5 337 -23z"/>
<path d="M1011 2244 c-253 -68 -410 -331 -346 -579 67 -256 329 -415 580 -350
256 67 415 329 350 578 -67 259 -333 419 -584 351z m217 -160 c76 -25 140 -79
181 -154 33 -60 36 -71 36 -150 0 -100 -24 -159 -90 -225 -66 -66 -125 -90
-225 -89 -72 0 -93 4 -136 26 -75 39 -107 70 -145 140 -31 58 -34 70 -34 148
1 72 5 93 27 136 38 73 69 106 129 139 88 48 170 57 257 29z"/>
</g>
</svg>
